<svg width="512" height="512" viewBox="0 0 512 512" fill="none" xmlns="http://www.w3.org/2000/svg">
<g clip-path="url(#clip0_1716_79077)">
<rect width="512" height="512" rx="80" fill="url(#paint0_radial_1716_79077)"/>
<g clip-path="url(#clip1_1716_79077)">
<g opacity="0.6">
<path opacity="0.4" d="M161.173 135.465C152.142 112.887 154.4 92.5673 167.946 74.505C181.493 56.4428 176.977 38.3806 154.4 20.3184" stroke="#2B1810" stroke-width="4.064" stroke-linecap="round"/>
<path opacity="0.4" d="M256 121.92C246.969 94.8267 251.484 69.9911 269.547 47.4133C287.609 29.3511 285.351 13.5467 262.773 0" stroke="#2B1810" stroke-width="4.064" stroke-linecap="round"/>
<path opacity="0.4" d="M350.827 135.465C341.796 112.887 344.053 92.5673 357.6 74.505C371.147 56.4428 366.631 38.3806 344.053 20.3184" stroke="#2B1810" stroke-width="4.064" stroke-linecap="round"/>
</g>
<path opacity="0.2" d="M256 452.456C390.669 452.456 499.84 443.965 499.84 433.491C499.84 423.016 390.669 414.525 256 414.525C121.331 414.525 12.1602 423.016 12.1602 433.491C12.1602 443.965 121.331 452.456 256 452.456Z" fill="#1A0F08"/>
<path d="M256 226.23C383.187 226.23 486.293 206.822 486.293 182.881C486.293 158.939 383.187 139.531 256 139.531C128.812 139.531 25.7063 158.939 25.7063 182.881C25.7063 206.822 128.812 226.23 256 226.23Z" fill="url(#paint1_linear_1716_79077)" stroke="#A86820" stroke-width="2.70933"/>
<path d="M256 222.167C375.706 222.167 472.746 206.398 472.746 186.946C472.746 167.494 375.706 151.725 256 151.725C136.294 151.725 39.2532 167.494 39.2532 186.946C39.2532 206.398 136.294 222.167 256 222.167Z" fill="#5C4033"/>
<path opacity="0.95" d="M52.8 182.882C79.8934 155.789 109.244 146.757 140.853 155.789C172.462 137.726 204.071 135.469 235.68 149.015C267.289 135.469 298.898 137.726 330.507 155.789C362.116 146.757 391.467 153.531 418.56 176.109C409.529 198.686 386.951 211.33 350.827 214.039C314.702 220.361 283.093 221.264 256 216.749C228.907 221.264 197.298 220.361 161.173 214.039C125.049 211.33 88.9245 200.944 52.8 182.882Z" fill="url(#paint2_radial_1716_79077)" stroke="#8B2E1F" stroke-width="2.032"/>
<g opacity="0.5">
<path d="M120.533 178.136C122.778 178.136 124.597 177.227 124.597 176.104C124.597 174.982 122.778 174.072 120.533 174.072C118.289 174.072 116.469 174.982 116.469 176.104C116.469 177.227 118.289 178.136 120.533 178.136Z" fill="#FAF6EF"/>
<path d="M154.4 161.882C156.644 161.882 158.464 160.973 158.464 159.85C158.464 158.728 156.644 157.818 154.4 157.818C152.155 157.818 150.336 158.728 150.336 159.85C150.336 160.973 152.155 161.882 154.4 161.882Z" fill="#FAF6EF"/>
<path d="M188.266 171.367C190.511 171.367 192.33 170.457 192.33 169.335C192.33 168.212 190.511 167.303 188.266 167.303C186.022 167.303 184.202 168.212 184.202 169.335C184.202 170.457 186.022 171.367 188.266 171.367Z" fill="#FAF6EF"/>
<path d="M222.133 157.82C224.377 157.82 226.197 156.91 226.197 155.788C226.197 154.666 224.377 153.756 222.133 153.756C219.888 153.756 218.069 154.666 218.069 155.788C218.069 156.91 219.888 157.82 222.133 157.82Z" fill="#FAF6EF"/>
<path d="M262.773 164.589C265.018 164.589 266.837 163.68 266.837 162.557C266.837 161.435 265.018 160.525 262.773 160.525C260.529 160.525 258.709 161.435 258.709 162.557C258.709 163.68 260.529 164.589 262.773 164.589Z" fill="#FAF6EF"/>
<path d="M303.414 157.82C305.658 157.82 307.478 156.91 307.478 155.788C307.478 154.666 305.658 153.756 303.414 153.756C301.169 153.756 299.35 154.666 299.35 155.788C299.35 156.91 301.169 157.82 303.414 157.82Z" fill="#FAF6EF"/>
<path d="M337.28 171.367C339.525 171.367 341.344 170.457 341.344 169.335C341.344 168.212 339.525 167.303 337.28 167.303C335.036 167.303 333.216 168.212 333.216 169.335C333.216 170.457 335.036 171.367 337.28 171.367Z" fill="#FAF6EF"/>
<path d="M371.147 178.136C373.391 178.136 375.211 177.227 375.211 176.104C375.211 174.982 373.391 174.072 371.147 174.072C368.902 174.072 367.083 174.982 367.083 176.104C367.083 177.227 368.902 178.136 371.147 178.136Z" fill="#FAF6EF"/>
<path d="M134.08 198.188C135.95 198.188 137.467 197.4 137.467 196.427C137.467 195.454 135.95 194.666 134.08 194.666C132.21 194.666 130.693 195.454 130.693 196.427C130.693 197.4 132.21 198.188 134.08 198.188Z" fill="#FAF6EF"/>
<path d="M215.36 191.413C217.23 191.413 218.746 190.624 218.746 189.652C218.746 188.679 217.23 187.891 215.36 187.891C213.489 187.891 211.973 188.679 211.973 189.652C211.973 190.624 213.489 191.413 215.36 191.413Z" fill="#FAF6EF"/>
<path d="M296.64 194.122C298.51 194.122 300.027 193.333 300.027 192.361C300.027 191.388 298.51 190.6 296.64 190.6C294.769 190.6 293.253 191.388 293.253 192.361C293.253 193.333 294.769 194.122 296.64 194.122Z" fill="#FAF6EF"/>
<path d="M350.827 202.251C352.697 202.251 354.213 201.462 354.213 200.49C354.213 199.517 352.697 198.729 350.827 198.729C348.956 198.729 347.44 199.517 347.44 200.49C347.44 201.462 348.956 202.251 350.827 202.251Z" fill="#FAF6EF"/>
</g>
<path d="M183.948 169.01C194.065 166.299 201.168 160.001 199.812 154.942C198.457 149.883 189.156 147.98 179.039 150.691C168.922 153.402 161.819 159.7 163.174 164.759C164.53 169.818 173.83 171.721 183.948 169.01Z" fill="#6B1E0F"/>
<path d="M274.673 161.058C284.989 162.877 294.088 160.171 294.997 155.013C295.907 149.856 288.282 144.2 277.967 142.381C267.652 140.562 258.552 143.269 257.643 148.426C256.733 153.584 264.358 159.24 274.673 161.058Z" fill="#6B1E0F"/>
<path d="M337.988 170.658C346.932 169.876 353.865 165.616 353.474 161.144C353.083 156.672 345.515 153.682 336.572 154.464C327.628 155.247 320.695 159.506 321.086 163.978C321.477 168.45 329.045 171.441 337.988 170.658Z" fill="#6B1E0F"/>
<path d="M147.627 169.335L158.464 165.271V173.399L147.627 176.109V169.335Z" fill="#E8A838"/>
<path d="M242.453 178.814L253.29 174.75V182.878L242.453 185.587V178.814Z" fill="#E8A838"/>
<path d="M310.187 176.105L321.024 172.041V180.169L310.187 182.878V176.105Z" fill="#E8A838"/>
<path d="M39.2532 186.943C39.2532 283.576 111.502 354.47 256 399.626C400.498 354.47 472.746 283.576 472.746 186.943H39.2532Z" fill="url(#paint3_radial_1716_79077)" stroke="#6B1E0F" stroke-width="3.38667"/>
<path opacity="0.95" d="M46.0266 243.838C50.5422 279.962 120.533 316.087 256 352.211C391.467 316.087 461.458 279.962 465.973 243.838" stroke="#8B2E1F" stroke-width="29.8027"/>
<path opacity="0.6" d="M46.0266 234.359C50.5422 270.484 120.533 306.608 256 342.733C391.467 306.608 461.458 270.484 465.973 234.359" stroke="#A0341F" stroke-width="2.70933"/>
<path d="M106.986 281.768C112.972 281.768 117.824 276.916 117.824 270.931C117.824 264.946 112.972 260.094 106.986 260.094C101.001 260.094 96.1489 264.946 96.1489 270.931C96.1489 276.916 101.001 281.768 106.986 281.768Z" fill="#FAF6EF"/>
<path d="M106.987 275.676C109.605 275.676 111.728 273.553 111.728 270.935C111.728 268.316 109.605 266.193 106.987 266.193C104.368 266.193 102.245 268.316 102.245 270.935C102.245 273.553 104.368 275.676 106.987 275.676Z" fill="#8B2E1F"/>
<path d="M106.987 260.094L109.696 266.867L106.987 270.931L104.277 266.867L106.987 260.094Z" fill="#FAF6EF"/>
<path d="M106.987 281.769L109.696 274.996L106.987 270.932L104.277 274.996L106.987 281.769Z" fill="#FAF6EF"/>
<path d="M96.1489 270.934L102.922 268.225L106.986 270.934L102.922 273.643L96.1489 270.934Z" fill="#FAF6EF"/>
<path d="M117.824 270.934L111.051 268.225L106.987 270.934L111.051 273.643L117.824 270.934Z" fill="#FAF6EF"/>
<path d="M256 319.699C264.23 319.699 270.902 313.028 270.902 304.798C270.902 296.568 264.23 289.896 256 289.896C247.77 289.896 241.099 296.568 241.099 304.798C241.099 313.028 247.77 319.699 256 319.699Z" fill="#FAF6EF"/>
<path d="M256 311.572C259.741 311.572 262.773 308.54 262.773 304.799C262.773 301.058 259.741 298.025 256 298.025C252.259 298.025 249.227 301.058 249.227 304.799C249.227 308.54 252.259 311.572 256 311.572Z" fill="#8B2E1F"/>
<path d="M256 307.507C257.496 307.507 258.709 306.294 258.709 304.797C258.709 303.301 257.496 302.088 256 302.088C254.503 302.088 253.29 303.301 253.29 304.797C253.29 306.294 254.503 307.507 256 307.507Z" fill="#F5D547"/>
<path d="M256 289.896L260.064 299.379L256 304.798L251.936 299.379L256 289.896Z" fill="#FAF6EF"/>
<path d="M256 319.704L260.064 310.221L256 304.803L251.936 310.221L256 319.704Z" fill="#FAF6EF"/>
<path d="M241.099 304.798L250.582 300.734L256 304.798L250.582 308.862L241.099 304.798Z" fill="#FAF6EF"/>
<path d="M270.901 304.798L261.419 300.734L256 304.798L261.419 308.862L270.901 304.798Z" fill="#FAF6EF"/>
<path d="M405.013 281.768C410.998 281.768 415.85 276.916 415.85 270.931C415.85 264.946 410.998 260.094 405.013 260.094C399.028 260.094 394.176 264.946 394.176 270.931C394.176 276.916 399.028 281.768 405.013 281.768Z" fill="#FAF6EF"/>
<path d="M405.014 275.676C407.632 275.676 409.755 273.553 409.755 270.935C409.755 268.316 407.632 266.193 405.014 266.193C402.395 266.193 400.272 268.316 400.272 270.935C400.272 273.553 402.395 275.676 405.014 275.676Z" fill="#8B2E1F"/>
<path d="M405.013 260.094L407.723 266.867L405.013 270.931L402.304 266.867L405.013 260.094Z" fill="#FAF6EF"/>
<path d="M405.013 281.769L407.723 274.996L405.013 270.932L402.304 274.996L405.013 281.769Z" fill="#FAF6EF"/>
<path d="M394.176 270.934L400.949 268.225L405.013 270.934L400.949 273.643L394.176 270.934Z" fill="#FAF6EF"/>
<path d="M415.85 270.934L409.077 268.225L405.013 270.934L409.077 273.643L415.85 270.934Z" fill="#FAF6EF"/>
<path d="M177.429 288.545C181.945 285.836 185.557 286.739 188.266 291.255C185.557 295.77 181.945 296.673 177.429 293.964V288.545Z" fill="#1B5E3F"/>
<path d="M330.507 291.253C335.022 288.543 338.635 289.446 341.344 293.962C338.635 298.477 335.022 299.381 330.507 296.671V291.253Z" fill="#1B5E3F"/>
<path opacity="0.4" d="M59.5734 196.428C55.0579 246.099 61.8312 293.512 79.8934 338.668" stroke="#F5D547" stroke-width="4.064"/>
<path opacity="0.3" d="M459.2 196.428C468.231 246.099 459.2 298.028 432.107 352.214" stroke="#6B1E0F" stroke-width="5.41867"/>
<path opacity="0.4" d="M188.267 399.625C233.422 408.656 278.578 408.656 323.734 399.625" stroke="#FAF6EF" stroke-width="2.032"/>
</g>
<path d="M301.588 197.334H213.078C210.274 197.334 208 199.608 208 202.412V212.569C208 215.374 210.274 217.648 213.078 217.648H301.588C304.393 217.648 306.667 215.374 306.667 212.569V202.412C306.667 199.608 304.393 197.334 301.588 197.334Z" fill="#8B2E1F"/>
<path d="M262.412 197.334H252.255C249.45 197.334 247.177 199.608 247.177 202.412V279.314C247.177 282.119 249.45 284.393 252.255 284.393H262.412C265.217 284.393 267.49 282.119 267.49 279.314V202.412C267.49 199.608 265.217 197.334 262.412 197.334Z" fill="#8B2E1F"/>
</g>
<defs>
<radialGradient id="paint0_radial_1716_79077" cx="0" cy="0" r="1" gradientUnits="userSpaceOnUse" gradientTransform="translate(256 256) rotate(90) scale(256)">
<stop stop-color="#D5432B"/>
<stop offset="1" stop-color="#8B2E1F"/>
</radialGradient>
<linearGradient id="paint1_linear_1716_79077" x1="25.7063" y1="139.531" x2="25.7063" y2="226.23" gradientUnits="userSpaceOnUse">
<stop stop-color="#FAF6EF"/>
<stop offset="1" stop-color="#E8D9C0"/>
</linearGradient>
<radialGradient id="paint2_radial_1716_79077" cx="0" cy="0" r="1" gradientUnits="userSpaceOnUse" gradientTransform="translate(235.68 179.939) scale(201.168 43.5953)">
<stop stop-color="#F5D547"/>
<stop offset="0.5" stop-color="#E8A838"/>
<stop offset="1" stop-color="#C44A2C"/>
</radialGradient>
<radialGradient id="paint3_radial_1716_79077" cx="0" cy="0" r="1" gradientUnits="userSpaceOnUse" gradientTransform="translate(256 272.016) scale(260.096 127.61)">
<stop stop-color="#F5D547"/>
<stop offset="0.5" stop-color="#E8A838"/>
<stop offset="1" stop-color="#A86820"/>
</radialGradient>
<clipPath id="clip0_1716_79077">
<rect width="512" height="512" rx="80" fill="white"/>
</clipPath>
<clipPath id="clip1_1716_79077">
<rect width="677.333" height="623.147" fill="white" transform="translate(-82.6667)"/>
</clipPath>
</defs>
</svg>
